<svg width="100" height="100" viewBox="0 0 100 100" fill="none" xmlns="http://www.w3.org/2000/svg">
<rect width="100" height="100" rx="50" fill="#FDF6EE"/>
<path d="M84.0002 83.9993C81.7353 77.2668 77.2871 71.3942 71.2968 67.2279C65.3058 63.0615 58.0821 60.8164 50.6668 60.8164C43.2514 60.8164 36.0276 63.0615 30.0369 67.2279C24.0462 71.3942 19.5979 77.2668 17.3335 83.9993H84.0002Z" stroke="#4C2B08" stroke-width="2" stroke-linecap="round" stroke-linejoin="round"/>
<path d="M50.6664 60.8589C63.2732 60.8589 73.4932 51.1153 73.4932 39.0959C73.4932 27.0766 63.2732 17.333 50.6664 17.333C38.0597 17.333 27.8398 27.0766 27.8398 39.0959C27.8398 51.1153 38.0597 60.8589 50.6664 60.8589Z" stroke="#4C2B08" stroke-width="2" stroke-linecap="round" stroke-linejoin="round"/>
<path d="M58.1201 47.5166C58.1201 47.5166 56.2261 51.0697 50.6665 51.0697C45.1069 51.0697 43.2129 47.5166 43.2129 47.5166" stroke="#4C2B08" stroke-width="2" stroke-linecap="round" stroke-linejoin="round"/>
<path d="M73.0798 34.9524C73.0285 34.9527 72.9778 34.9529 72.9271 34.9529C66.2919 34.9529 60.3349 32.1853 56.2566 27.7949C52.1783 32.1854 46.2212 34.953 39.5861 34.953C35.7332 34.953 32.1088 34.0197 28.9482 32.3774C31.9177 23.646 40.5187 17.333 50.6663 17.333C61.7869 17.333 71.0501 24.9148 73.0798 34.9524Z" stroke="#4C2B08" stroke-width="2" stroke-linecap="round" stroke-linejoin="round"/>
</svg>
