<svg width="234" height="234" viewBox="0 0 234 234" fill="none" xmlns="http://www.w3.org/2000/svg">
<rect width="234" height="234" rx="50" fill="#FDF6EE"/>
<path d="M196.56 196.559C191.26 180.806 180.852 167.064 166.834 157.314C152.815 147.565 135.912 142.312 118.56 142.312C101.208 142.312 84.3043 147.565 70.286 157.314C56.2677 167.064 45.8588 180.806 40.5601 196.559H196.56Z" stroke="#AB7843" stroke-width="2" stroke-linecap="round" stroke-linejoin="round"/>
<path d="M118.559 142.41C148.059 142.41 171.974 119.61 171.974 91.4848C171.974 63.3595 148.059 40.5596 118.559 40.5596C89.0594 40.5596 65.145 63.3595 65.145 91.4848C65.145 119.61 89.0594 142.41 118.559 142.41Z" stroke="#AB7843" stroke-width="2" stroke-linecap="round" stroke-linejoin="round"/>
<path d="M136.001 111.188C136.001 111.188 131.569 119.503 118.56 119.503C105.55 119.503 101.118 111.188 101.118 111.188" stroke="#AB7843" stroke-width="2" stroke-linecap="round" stroke-linejoin="round"/>
<path d="M171.006 81.789C170.886 81.7897 170.768 81.7901 170.649 81.7901C155.123 81.7901 141.183 75.3139 131.64 65.0404C122.097 75.3142 108.157 81.7905 92.6309 81.7905C83.615 81.7905 75.134 79.6065 67.7383 75.7634C74.6868 55.332 94.8132 40.5596 118.559 40.5596C144.581 40.5596 166.257 58.301 171.006 81.789Z" stroke="#AB7843" stroke-width="2" stroke-linecap="round" stroke-linejoin="round"/>
</svg>
