<?xml version="1.0" standalone="no"?>
<!DOCTYPE svg PUBLIC "-//W3C//DTD SVG 20010904//EN"
 "http://www.w3.org/TR/2001/REC-SVG-20010904/DTD/svg10.dtd">
<svg version="1.0" xmlns="http://www.w3.org/2000/svg"
 width="4096.000000pt" height="4096.000000pt" viewBox="0 0 4096.000000 4096.000000"
 preserveAspectRatio="xMidYMid meet">

<g transform="translate(0.000000,4096.000000) scale(0.100000,-0.100000)"
fill="#000000" stroke="none">
<path d="M7096 35180 c-514 -58 -943 -355 -1171 -809 -50 -101 -110 -286 -131
-406 -23 -133 -23 -356 1 -490 36 -210 125 -423 252 -605 57 -82 878 -907
6213 -6241 l6147 -6146 -6147 -6149 c-6678 -6681 -6210 -6204 -6326 -6437 -58
-114 -103 -240 -130 -367 -27 -121 -27 -458 0 -580 128 -586 566 -1021 1156
-1147 121 -26 440 -26 560 0 210 46 406 130 577 250 73 50 1155 1127 6238
6209 l6150 6148 6160 -6159 c5631 -5629 6168 -6164 6254 -6221 173 -113 344
-185 541 -227 121 -26 439 -26 560 0 194 41 378 118 539 225 105 69 273 230
356 341 116 154 217 379 261 581 27 122 27 458 0 580 -43 198 -131 398 -249
567 -50 73 -1127 1155 -6206 6236 l-6146 6147 6136 6138 c4487 4487 6153 6160
6198 6221 125 171 202 332 252 526 171 678 -163 1384 -794 1680 -484 227
-1035 177 -1477 -132 -82 -57 -961 -932 -6243 -6212 l-6147 -6146 -6133 6131
c-3372 3372 -6154 6149 -6182 6171 -192 155 -437 266 -675 307 -114 19 -297
27 -394 16z"/>
</g>
</svg>
