<svg width="52" height="52" viewBox="0 0 52 52" fill="none" xmlns="http://www.w3.org/2000/svg">
<path d="M41.5193 19.1023C41.5193 29.4489 25.9994 41.52 25.9994 41.52C25.9994 41.52 10.4795 29.4489 10.4795 19.1023C10.4795 10.6491 17.5462 3.5824 25.9994 3.5824C34.4526 3.5824 41.5193 10.6491 41.5193 19.1023Z" stroke="white" stroke-width="3.43" stroke-linecap="round" stroke-linejoin="round"/>
<path d="M25.9995 24.2756C28.8566 24.2756 31.1728 21.9594 31.1728 19.1023C31.1728 16.2451 28.8566 13.929 25.9995 13.929C23.1423 13.929 20.8262 16.2451 20.8262 19.1023C20.8262 21.9594 23.1423 24.2756 25.9995 24.2756Z" stroke="white" stroke-width="3.43" stroke-linecap="round" stroke-linejoin="round"/>
<path d="M40.0618 36.3467H43.244L48.4173 48.4177H3.58203L8.75533 36.3467H11.9376" stroke="white" stroke-width="3.43" stroke-linecap="round" stroke-linejoin="round"/>
</svg>
