<svg width="22" height="22" viewBox="0 0 22 22" fill="none" xmlns="http://www.w3.org/2000/svg">
<path d="M1 5.61548H21" stroke="#9C4D50" stroke-width="2" stroke-linecap="round" stroke-linejoin="round"/>
<path d="M3.5 5.61548H18.5V19.4616C18.5 19.8696 18.3243 20.261 18.0118 20.5495C17.6993 20.8379 17.2753 21.0001 16.8333 21.0001H5.16667C4.72463 21.0001 4.30072 20.8379 3.98815 20.5495C3.6756 20.261 3.5 19.8696 3.5 19.4616V5.61548Z" stroke="#9C4D50" stroke-width="2" stroke-linecap="round" stroke-linejoin="round"/>
<path d="M6.83301 5.61538V4.84615C6.83301 3.82609 7.27199 2.8478 8.05339 2.12651C8.83479 1.40522 9.89461 1 10.9997 1C12.1047 1 13.1646 1.40522 13.946 2.12651C14.7274 2.8478 15.1663 3.82609 15.1663 4.84615V5.61538" stroke="#9C4D50" stroke-width="2" stroke-linecap="round" stroke-linejoin="round"/>
<path d="M8.5 10.2332V16.3894" stroke="#9C4D50" stroke-width="2" stroke-linecap="round" stroke-linejoin="round"/>
<path d="M13.5 10.2332V16.3894" stroke="#9C4D50" stroke-width="2" stroke-linecap="round" stroke-linejoin="round"/>
</svg>
