<svg width="22" height="25" viewBox="0 0 22 25" fill="none" xmlns="http://www.w3.org/2000/svg">
<path d="M1 6.29102H21" stroke="#AB7843" stroke-width="2" stroke-linecap="round" stroke-linejoin="round"/>
<path d="M3.5 6.29102H18.5V22.1632C18.5 22.6309 18.3243 23.0796 18.0118 23.4102C17.6993 23.7409 17.2753 23.9268 16.8333 23.9268H5.16667C4.72463 23.9268 4.30072 23.7409 3.98815 23.4102C3.6756 23.0796 3.5 22.6309 3.5 22.1632V6.29102Z" stroke="#AB7843" stroke-width="2" stroke-linecap="round" stroke-linejoin="round"/>
<path d="M6.83301 6.29073V5.40894C6.83301 4.23962 7.27199 3.11818 8.05339 2.29134C8.83479 1.46451 9.89461 1 10.9997 1C12.1047 1 13.1646 1.46451 13.946 2.29134C14.7274 3.11818 15.1663 4.23962 15.1663 5.40894V6.29073" stroke="#AB7843" stroke-width="2" stroke-linecap="round" stroke-linejoin="round"/>
<path d="M8.5 11.584V18.641" stroke="#AB7843" stroke-width="2" stroke-linecap="round" stroke-linejoin="round"/>
<path d="M13.5 11.584V18.641" stroke="#AB7843" stroke-width="2" stroke-linecap="round" stroke-linejoin="round"/>
</svg>
