<svg width="30" height="24" viewBox="0 0 30 24" fill="none" xmlns="http://www.w3.org/2000/svg">
<path d="M27.3048 10.168C27.6347 10.6187 27.8173 11.2043 27.8173 11.8114C27.8173 12.4186 27.6347 13.0041 27.3048 13.4548C25.2155 16.2266 20.46 21.6228 14.9087 21.6228C9.35731 21.6228 4.60186 16.2266 2.51263 13.4548C2.18266 13.0041 2 12.4186 2 11.8114C2 11.2043 2.18266 10.6187 2.51263 10.168C4.60186 7.39627 9.35731 2 14.9087 2C20.46 2 25.2155 7.39627 27.3048 10.168Z" stroke="#4C2B08" stroke-width="3.43" stroke-linecap="round" stroke-linejoin="round"/>
<path d="M14.9088 16.1723C17.1066 16.1723 18.8883 14.22 18.8883 11.8117C18.8883 9.40346 17.1066 7.45117 14.9088 7.45117C12.711 7.45117 10.9293 9.40346 10.9293 11.8117C10.9293 14.22 12.711 16.1723 14.9088 16.1723Z" stroke="#4C2B08" stroke-width="3.43" stroke-linecap="round" stroke-linejoin="round"/>
</svg>
