<svg width="48" height="48" viewBox="0 0 48 48" fill="none" xmlns="http://www.w3.org/2000/svg">
<path d="M41.5098 3.30664H6.4905C4.73221 3.30664 3.30693 4.73197 3.30693 6.49021V41.5095C3.30693 43.2678 4.73221 44.6931 6.4905 44.6931H41.5098C43.268 44.6931 44.6934 43.2678 44.6934 41.5095V6.49021C44.6934 4.73197 43.268 3.30664 41.5098 3.30664Z" stroke="white" stroke-width="3.43" stroke-linecap="round" stroke-linejoin="round"/>
<path d="M11.2657 16.041H27.1836" stroke="white" stroke-width="3.43" stroke-linecap="round" stroke-linejoin="round"/>
<path d="M27.1837 16.041C27.1837 18.6783 29.3217 20.8163 31.959 20.8163C34.5964 20.8163 36.7344 18.6783 36.7344 16.041C36.7344 13.4036 34.5964 11.2656 31.959 11.2656C29.3217 11.2656 27.1837 13.4036 27.1837 16.041Z" stroke="white" stroke-width="3.43" stroke-linecap="round" stroke-linejoin="round"/>
<path d="M36.7344 31.959H27.1837" stroke="white" stroke-width="3.43" stroke-linecap="round" stroke-linejoin="round"/>
<path d="M17.6328 31.959H11.2657" stroke="white" stroke-width="3.43" stroke-linecap="round" stroke-linejoin="round"/>
<path d="M17.6329 31.959C17.6329 34.5962 19.7709 36.7343 22.4082 36.7343C25.0456 36.7343 27.1836 34.5962 27.1836 31.959C27.1836 29.3216 25.0456 27.1836 22.4082 27.1836C19.7709 27.1836 17.6329 29.3216 17.6329 31.959Z" stroke="white" stroke-width="3.43" stroke-linecap="round" stroke-linejoin="round"/>
</svg>
