<svg width="52" height="52" viewBox="0 0 52 52" fill="none" xmlns="http://www.w3.org/2000/svg">
<g clip-path="url(#clip0_248_131)">
<path d="M26.0001 29.4488C30.762 29.4488 34.6223 25.5885 34.6223 20.8266C34.6223 16.0648 30.762 12.2045 26.0001 12.2045C21.2382 12.2045 17.3779 16.0648 17.3779 20.8266C17.3779 25.5885 21.2382 29.4488 26.0001 29.4488Z" stroke="white" stroke-width="3.43" stroke-linecap="round" stroke-linejoin="round"/>
<path d="M11.2734 42.8994C12.8125 40.3731 14.9755 38.2851 17.5546 36.8366C20.1336 35.3877 23.042 34.6267 26.0001 34.6267C28.9582 34.6267 31.8666 35.3877 34.4457 36.8366C37.0248 38.2851 39.1876 40.3731 40.7268 42.8994" stroke="white" stroke-width="3.43" stroke-linecap="round" stroke-linejoin="round"/>
<path d="M26.0003 49.8333C39.1633 49.8333 49.8337 39.1629 49.8337 26C49.8337 12.8372 39.1633 2.16663 26.0003 2.16663C12.8375 2.16663 2.16699 12.8372 2.16699 26C2.16699 39.1629 12.8375 49.8333 26.0003 49.8333Z" stroke="white" stroke-width="3.43" stroke-linecap="round" stroke-linejoin="round"/>
</g>
<defs>
<clipPath id="clip0_248_131">
<rect width="52" height="52" fill="white"/>
</clipPath>
</defs>
</svg>
