<svg width="10" height="10" viewBox="0 0 10 10" fill="none" xmlns="http://www.w3.org/2000/svg">
<path d="M1.02051 2.67871H8.97944" stroke="#9C4D50" stroke-linecap="round" stroke-linejoin="round"/>
<path d="M2.01562 2.67871H7.98482V8.64791C7.98482 8.8238 7.91492 8.99253 7.79056 9.11689C7.6662 9.24125 7.49747 9.31115 7.32158 9.31115H2.67887C2.50296 9.31115 2.33427 9.24125 2.20988 9.11689C2.0855 8.99253 2.01562 8.8238 2.01562 8.64791V2.67871Z" stroke="#9C4D50" stroke-linecap="round" stroke-linejoin="round"/>
<path d="M3.3418 2.6787V2.34708C3.3418 1.90732 3.51649 1.48557 3.82744 1.17461C4.1384 0.863658 4.56015 0.688965 4.99991 0.688965C5.43966 0.688965 5.86141 0.863658 6.17237 1.17461C6.48333 1.48557 6.65802 1.90732 6.65802 2.34708V2.6787" stroke="#9C4D50" stroke-linecap="round" stroke-linejoin="round"/>
<path d="M4.00488 4.66943V7.32343" stroke="#9C4D50" stroke-linecap="round" stroke-linejoin="round"/>
<path d="M5.99512 4.66943V7.32343" stroke="#9C4D50" stroke-linecap="round" stroke-linejoin="round"/>
</svg>
