<svg width="42" height="43" viewBox="0 0 42 43" fill="none" xmlns="http://www.w3.org/2000/svg">
<path d="M39.1069 31.0288V36.5773C39.1069 37.3131 38.8133 38.0188 38.291 38.539C37.7687 39.0592 37.06 39.3516 36.3212 39.3516H30.75" stroke="white" stroke-width="3.43" stroke-linecap="round" stroke-linejoin="round"/>
<path d="M30.75 3.28613H36.3212C37.06 3.28613 37.7687 3.57842 38.291 4.09869C38.8133 4.61897 39.1069 5.3246 39.1069 6.06039V11.6089" stroke="white" stroke-width="3.43" stroke-linecap="round" stroke-linejoin="round"/>
<path d="M2.89355 11.6089V6.06039C2.89355 5.3246 3.18704 4.61897 3.70944 4.09869C4.23185 3.57842 4.94038 3.28613 5.67918 3.28613H11.2504" stroke="white" stroke-width="3.43" stroke-linecap="round" stroke-linejoin="round"/>
<path d="M11.2504 39.3516H5.67918C4.94038 39.3516 4.23185 39.0592 3.70944 38.539C3.18704 38.0188 2.89355 37.3131 2.89355 36.5773V31.0288" stroke="white" stroke-width="3.43" stroke-linecap="round" stroke-linejoin="round"/>
<path d="M10.5537 19.2383C10.5537 20.3313 10.7699 21.4135 11.1898 22.4233C11.6098 23.433 12.2254 24.3505 13.0014 25.1234C13.7774 25.8962 14.6986 26.5093 15.7125 26.9275C16.7265 27.3458 17.8131 27.5611 18.9106 27.5611C20.008 27.5611 21.0947 27.3458 22.1086 26.9275C23.1225 26.5093 24.0438 25.8962 24.8198 25.1234C25.5958 24.3505 26.2114 23.433 26.6313 22.4233C27.0513 21.4135 27.2675 20.3313 27.2675 19.2383C27.2675 18.1453 27.0513 17.0631 26.6313 16.0533C26.2114 15.0435 25.5958 14.126 24.8198 13.3532C24.0438 12.5804 23.1225 11.9673 22.1086 11.5491C21.0947 11.1308 20.008 10.9155 18.9106 10.9155C17.8131 10.9155 16.7265 11.1308 15.7125 11.5491C14.6986 11.9673 13.7774 12.5804 13.0014 13.3532C12.2254 14.126 11.6098 15.0435 11.1898 16.0533C10.7699 17.0631 10.5537 18.1453 10.5537 19.2383Z" stroke="white" stroke-width="3.43"/>
<path d="M25.1787 25.48L30.75 31.0285" stroke="white" stroke-width="3.43" stroke-linecap="round" stroke-linejoin="round"/>
</svg>
